<?xml version="1.0" standalone="no"?><!DOCTYPE svg PUBLIC "-//W3C//DTD SVG 1.1//EN" "http://www.w3.org/Graphics/SVG/1.1/DTD/svg11.dtd"><svg class="icon" width="200px" height="199.80px" viewBox="0 0 1025 1024" version="1.1" xmlns="http://www.w3.org/2000/svg"><path d="M188.177493 384H428.390827L349.62816 69.162667A21.333333 21.333333 0 0 1 370.36416 42.666667h130.133333a21.333333 21.333333 0 0 1 19.072 11.776L684.390827 384h234.666666a106.666667 106.666667 0 0 1 0 213.333333H190.01216L93.88416 677.717333a21.333333 21.333333 0 0 1-13.653333 4.949334H21.350827a21.333333 21.333333 0 0 1-20.394667-27.648L52.070827 490.666667 0.998827 326.314667A21.333333 21.333333 0 0 1 21.350827 298.666667h55.936a21.333333 21.333333 0 0 1 13.610666 4.906666L188.177493 384z m331.648 543.914667a21.333333 21.333333 0 0 1-18.517333 10.752H371.302827a21.333333 21.333333 0 0 1-20.48-27.178667L428.305493 640h256l-164.522666 287.914667z" fill="#333333" /></svg>